# xmcd
#
# Track frame offsets:
#	150
#	15986
#	34152
#	45317
#	76316
#	95307
#	112935
#	125944
#	143287
#	163585
#	173779
#	188435
#	203852
#	222779
#	241685
#	257830
#	275804
#	292515
#	307149
#	323330
#
# Disc length: 4481 seconds
#
# Revision: 1
# Processed by: cddbd v1.4PL0 Copyright (c) Steve Scherf et al.
# Submitted via: audiograbber 1.82.02
#
DISCID=00117f14
DTITLE=Various Artist - Country Music Awards 1993-2002
DYEAR=1900
DGENRE=Country
TTITLE0=Norma O'Hara Murphy - Tamworth
TTITLE1=James Blundell and James Reyne - Way Out West
TTITLE2=Pixie - Kindee
TTITLE3=Paul Kelly and Kev Carmody - From Little Things Big Things Grow
TTITLE4=Stan Coster - Lawson's Loaded Dog
TTITLE5=Gina Jeffreys - Didn't We Shine
TTITLE6=The Wheel - I Fell In Love
TTITLE7=Tania Kernaghan - Where The Murray Meets The Darling
TTITLE8=Graeme Connors - The Road Less Travelled
TTITLE9=Dead Ringer Band - Living In The Circle
TTITLE10=Colin Buchanan - Edge Of The Kimberley
TTITLE11=Gina Jeffreys - Dancin' With Elvis
TTITLE12=Lee Kernaghan - Changi Banjo
TTITLE13=Kasey Chambers - The Captain
TTITLE14=John Williamson - Three Sons
TTITLE15=Troy Cassar-Daley - They Don't Make 'Em Like That Anymore
TTITLE16=Adam Brand - Good Friends
TTITLE17=Slim Dusty - Looking Forward Looking Back
TTITLE18=Beccy Cole - Too Strong To Break
TTITLE19=Adam Harvey - The House That Jack Built
EXTD=
EXTT0=
EXTT1=
EXTT2=
EXTT3=
EXTT4=
EXTT5=
EXTT6=
EXTT7=
EXTT8=
EXTT9=
EXTT10=
EXTT11=
EXTT12=
EXTT13=
EXTT14=
EXTT15=
EXTT16=
EXTT17=
EXTT18=
EXTT19=
PLAYORDER=
